<mxfile host="Electron" agent="Mozilla/5.0 (X11; Linux x86_64) AppleWebKit/537.36 (KHTML, like Gecko) draw.io/26.0.4 Chrome/128.0.6613.186 Electron/32.2.5 Safari/537.36" version="26.0.4">
  <diagram name="DataSync to EFS" id="G9TcvFh8NGKkP4ZVfybA">
    <mxGraphModel dx="1207" dy="1198" grid="1" gridSize="10" guides="1" tooltips="1" connect="1" arrows="1" fold="1" page="1" pageScale="1" pageWidth="850" pageHeight="1100" math="0" shadow="0">
      <root>
        <mxCell id="0" />
        <mxCell id="1" parent="0" />
        <mxCell id="zkMOTt67h10gXugrl5SO-13" value="Corporate data center" style="points=[[0,0],[0.25,0],[0.5,0],[0.75,0],[1,0],[1,0.25],[1,0.5],[1,0.75],[1,1],[0.75,1],[0.5,1],[0.25,1],[0,1],[0,0.75],[0,0.5],[0,0.25]];outlineConnect=0;gradientColor=none;html=1;whiteSpace=wrap;fontSize=12;fontStyle=0;container=1;pointerEvents=0;collapsible=0;recursiveResize=0;shape=mxgraph.aws4.group;grIcon=mxgraph.aws4.group_corporate_data_center;strokeColor=#7D8998;fillColor=none;verticalAlign=top;align=left;spacingLeft=30;fontColor=#5A6C86;dashed=0;" vertex="1" parent="1">
          <mxGeometry x="50" y="450" width="210" height="160" as="geometry" />
        </mxCell>
        <mxCell id="zkMOTt67h10gXugrl5SO-25" style="edgeStyle=orthogonalEdgeStyle;rounded=0;orthogonalLoop=1;jettySize=auto;html=1;" edge="1" parent="zkMOTt67h10gXugrl5SO-13" source="zkMOTt67h10gXugrl5SO-16" target="zkMOTt67h10gXugrl5SO-17">
          <mxGeometry relative="1" as="geometry" />
        </mxCell>
        <mxCell id="zkMOTt67h10gXugrl5SO-16" value="Server" style="sketch=0;outlineConnect=0;fontColor=#232F3E;gradientColor=none;fillColor=#232F3D;strokeColor=none;dashed=0;verticalLabelPosition=bottom;verticalAlign=top;align=center;html=1;fontSize=12;fontStyle=0;aspect=fixed;pointerEvents=1;shape=mxgraph.aws4.traditional_server;" vertex="1" parent="zkMOTt67h10gXugrl5SO-13">
          <mxGeometry x="30" y="46" width="45" height="78" as="geometry" />
        </mxCell>
        <mxCell id="zkMOTt67h10gXugrl5SO-17" value="DataSync Agent" style="sketch=0;outlineConnect=0;fontColor=#232F3E;gradientColor=none;fillColor=#01A88D;strokeColor=none;dashed=0;verticalLabelPosition=bottom;verticalAlign=top;align=center;html=1;fontSize=12;fontStyle=0;aspect=fixed;shape=mxgraph.aws4.agent2;" vertex="1" parent="zkMOTt67h10gXugrl5SO-13">
          <mxGeometry x="110" y="46" width="78" height="78" as="geometry" />
        </mxCell>
        <mxCell id="zkMOTt67h10gXugrl5SO-27" style="edgeStyle=orthogonalEdgeStyle;rounded=0;orthogonalLoop=1;jettySize=auto;html=1;" edge="1" parent="1" source="zkMOTt67h10gXugrl5SO-15" target="zkMOTt67h10gXugrl5SO-24">
          <mxGeometry relative="1" as="geometry" />
        </mxCell>
        <mxCell id="zkMOTt67h10gXugrl5SO-15" value="Direct Connect" style="sketch=0;points=[[0,0,0],[0.25,0,0],[0.5,0,0],[0.75,0,0],[1,0,0],[0,1,0],[0.25,1,0],[0.5,1,0],[0.75,1,0],[1,1,0],[0,0.25,0],[0,0.5,0],[0,0.75,0],[1,0.25,0],[1,0.5,0],[1,0.75,0]];outlineConnect=0;fontColor=#232F3E;fillColor=#8C4FFF;strokeColor=#ffffff;dashed=0;verticalLabelPosition=bottom;verticalAlign=top;align=center;html=1;fontSize=12;fontStyle=0;aspect=fixed;shape=mxgraph.aws4.resourceIcon;resIcon=mxgraph.aws4.direct_connect;" vertex="1" parent="1">
          <mxGeometry x="300" y="496" width="78" height="78" as="geometry" />
        </mxCell>
        <mxCell id="zkMOTt67h10gXugrl5SO-18" value="AWS Cloud" style="points=[[0,0],[0.25,0],[0.5,0],[0.75,0],[1,0],[1,0.25],[1,0.5],[1,0.75],[1,1],[0.75,1],[0.5,1],[0.25,1],[0,1],[0,0.75],[0,0.5],[0,0.25]];outlineConnect=0;gradientColor=none;html=1;whiteSpace=wrap;fontSize=12;fontStyle=0;container=1;pointerEvents=0;collapsible=0;recursiveResize=0;shape=mxgraph.aws4.group;grIcon=mxgraph.aws4.group_aws_cloud;strokeColor=#232F3E;fillColor=none;verticalAlign=top;align=left;spacingLeft=30;fontColor=#232F3E;dashed=0;" vertex="1" parent="1">
          <mxGeometry x="580" y="220" width="240" height="170" as="geometry" />
        </mxCell>
        <mxCell id="zkMOTt67h10gXugrl5SO-14" value="Amazon DataSync" style="sketch=0;points=[[0,0,0],[0.25,0,0],[0.5,0,0],[0.75,0,0],[1,0,0],[0,1,0],[0.25,1,0],[0.5,1,0],[0.75,1,0],[1,1,0],[0,0.25,0],[0,0.5,0],[0,0.75,0],[1,0.25,0],[1,0.5,0],[1,0.75,0]];outlineConnect=0;fontColor=#232F3E;fillColor=#01A88D;strokeColor=#ffffff;dashed=0;verticalLabelPosition=top;verticalAlign=bottom;align=center;html=1;fontSize=12;fontStyle=0;aspect=fixed;shape=mxgraph.aws4.resourceIcon;resIcon=mxgraph.aws4.datasync;labelPosition=center;" vertex="1" parent="zkMOTt67h10gXugrl5SO-18">
          <mxGeometry x="20" y="60" width="78" height="78" as="geometry" />
        </mxCell>
        <mxCell id="zkMOTt67h10gXugrl5SO-21" value="Amazon EFS" style="sketch=0;points=[[0,0,0],[0.25,0,0],[0.5,0,0],[0.75,0,0],[1,0,0],[0,1,0],[0.25,1,0],[0.5,1,0],[0.75,1,0],[1,1,0],[0,0.25,0],[0,0.5,0],[0,0.75,0],[1,0.25,0],[1,0.5,0],[1,0.75,0]];outlineConnect=0;fontColor=#232F3E;fillColor=#7AA116;strokeColor=#ffffff;dashed=0;verticalLabelPosition=bottom;verticalAlign=top;align=center;html=1;fontSize=12;fontStyle=0;aspect=fixed;shape=mxgraph.aws4.resourceIcon;resIcon=mxgraph.aws4.elastic_file_system;" vertex="1" parent="zkMOTt67h10gXugrl5SO-18">
          <mxGeometry x="140" y="60" width="78" height="78" as="geometry" />
        </mxCell>
        <mxCell id="zkMOTt67h10gXugrl5SO-22" style="edgeStyle=orthogonalEdgeStyle;rounded=0;orthogonalLoop=1;jettySize=auto;html=1;entryX=0;entryY=0.5;entryDx=0;entryDy=0;entryPerimeter=0;" edge="1" parent="zkMOTt67h10gXugrl5SO-18" source="zkMOTt67h10gXugrl5SO-14" target="zkMOTt67h10gXugrl5SO-21">
          <mxGeometry relative="1" as="geometry" />
        </mxCell>
        <mxCell id="zkMOTt67h10gXugrl5SO-29" style="edgeStyle=orthogonalEdgeStyle;rounded=0;orthogonalLoop=1;jettySize=auto;html=1;" edge="1" parent="1" source="zkMOTt67h10gXugrl5SO-20" target="zkMOTt67h10gXugrl5SO-14">
          <mxGeometry relative="1" as="geometry" />
        </mxCell>
        <mxCell id="zkMOTt67h10gXugrl5SO-20" value="VPC Endpoint (PrivateLink)" style="sketch=0;outlineConnect=0;fontColor=#232F3E;gradientColor=none;fillColor=#8C4FFF;strokeColor=none;dashed=0;verticalLabelPosition=bottom;verticalAlign=top;align=center;html=1;fontSize=12;fontStyle=0;aspect=fixed;pointerEvents=1;shape=mxgraph.aws4.endpoints;" vertex="1" parent="1">
          <mxGeometry x="600" y="496" width="78" height="78" as="geometry" />
        </mxCell>
        <mxCell id="zkMOTt67h10gXugrl5SO-28" style="edgeStyle=orthogonalEdgeStyle;rounded=0;orthogonalLoop=1;jettySize=auto;html=1;" edge="1" parent="1" source="zkMOTt67h10gXugrl5SO-24" target="zkMOTt67h10gXugrl5SO-20">
          <mxGeometry relative="1" as="geometry" />
        </mxCell>
        <mxCell id="zkMOTt67h10gXugrl5SO-24" value="Private VIF" style="rounded=0;whiteSpace=wrap;html=1;fillColor=#d5e8d4;strokeColor=#82b366;fontStyle=1;fontSize=14;" vertex="1" parent="1">
          <mxGeometry x="420" y="525" width="140" height="20" as="geometry" />
        </mxCell>
        <mxCell id="zkMOTt67h10gXugrl5SO-26" style="edgeStyle=orthogonalEdgeStyle;rounded=0;orthogonalLoop=1;jettySize=auto;html=1;" edge="1" parent="1" source="zkMOTt67h10gXugrl5SO-17" target="zkMOTt67h10gXugrl5SO-15">
          <mxGeometry relative="1" as="geometry" />
        </mxCell>
      </root>
    </mxGraphModel>
  </diagram>
</mxfile>
